#!OML:ASF E:\Mandelcareful walks\Project 1\Capture day 1\Session 1\Subject1.ASF
:FULLY-SPECIFIED
:DEGREES
127
root 13.1079 15.8705 -1.86814 -97.4338 -80.726 106.186
lowerback 33.7482 1.7791 3.82268
upperback 9.85727 2.35368 -0.344646
thorax -6.15401 0.731186 -3.15326
lowerneck -28.6934 -0.323151 -5.26468
upperneck 31.4403 2.29598 -1.49131
head 15.9956 -0.0572731 0.710241
rclavicle -9.54166e-015 2.54444e-014
rhumerus -0.411648 11.2352 -80.8564
rradius 53.6344
rwrist -26.4372
rhand -16.5262 -33.0005
rfingers 7.12502
rthumb 9.6925 -62.7575
lclavicle -9.54166e-015 2.54444e-014
lhumerus -23.3922 -13.6986 86.9887
lradius 39.3587
lwrist 17.9207
lhand -22.2078 -12.9756
lfingers 7.12502
lthumb 4.2081 16.9626
rfemur -39.4901 -17.4694 7.41259
rtibia 51.221
rfoot -17.9995 -5.74156
rtoes -2.48063
lfemur -36.9338 14.3613 -17.9748
ltibia 49.2253
lfoot -12.3505 4.67497
ltoes -15.0822
128
root 13.1336 15.7963 -1.8028 -96.8168 -80.86 105.879
lowerback 34.5129 1.72818 3.84728
upperback 9.96719 2.28358 -0.339461
thorax -6.31738 0.680514 -3.14458
lowerneck -28.6442 -0.310832 -5.35526
upperneck 31.0119 2.40683 -1.6354
head 15.7813 -0.0264455 0.687829
rclavicle -4.13472e-014 6.36111e-015
rhumerus 0.659485 11.3495 -80.5341
rradius 54.0154
rwrist -27.078
rhand -16.3432 -33.0465
rfingers 7.12502
rthumb 9.86907 -62.7952
lclavicle -4.13472e-014 6.36111e-015
lhumerus -23.4688 -14.1801 87.1311
lradius 39.9539
lwrist 18.1068
lhand -22.2281 -13.1584
lfingers 7.12502
lthumb 4.18849 16.7802
rfemur -40.648 -17.734 7.39806
rtibia 52.4462
rfoot -18.1541 -5.60656
rtoes -3.00158
lfemur -38.1912 14.5481 -18.2126
ltibia 50.6496
lfoot -12.9676 4.2393
ltoes -14.8415
129
root 13.1589 15.7174 -1.74351 -97.3134 -81.0475 106.56
lowerback 35.5889 1.82225 3.83307
upperback 10.0259 2.37795 -0.358652
thorax -6.50362 0.701882 -3.18774
lowerneck -28.9941 -0.470467 -5.57854
upperneck 30.6485 2.21985 -1.36008
head 15.6805 -0.0710407 0.805808
rclavicle 6.20208e-014 4.77083e-015
rhumerus 1.54015 11.2468 -80.1269
rradius 54.7047
rwrist -27.7483
rhand -16.1222 -33.373
rfingers 7.12502
rthumb 10.0823 -63.1115
lclavicle 6.20208e-014 4.77083e-015
lhumerus -23.2811 -15.0554 87.1791
lradius 40.385
lwrist 18.5229
lhand -22.3692 -13.6466
lfingers 7.12502
lthumb 4.05225 16.2946
rfemur -41.7288 -17.7771 7.49203
rtibia 53.6129
rfoot -18.2735 -5.69799
rtoes -4.13772
lfemur -39.2612 14.8347 -18.2672
ltibia 52.0779
lfoot -13.5931 3.83732
ltoes -14.6572
130
root 13.1818 15.6364 -1.68042 -97.3637 -81.1447 106.947
lowerback 36.3543 1.95325 3.80843
upperback 10.0858 2.51524 -0.434379
thorax -6.69597 0.751834 -3.31361
lowerneck -29.177 -0.627955 -5.62238
upperneck 30.3743 1.97795 -1.2086
head 15.5929 -0.1393 0.827668
rclavicle 1.90833e-014 1.27222e-014
rhumerus 2.29059 11.0801 -79.7664
rradius 55.3418
rwrist -28.5103
rhand -16.2955 -33.9679
rfingers 7.12502
rthumb 9.91507 -63.7144
lclavicle 1.90833e-014 1.27222e-014
lhumerus -23.2209 -16.2444 87.217
lradius 40.9163
lwrist 19.0605
lhand -22.4469 -13.8517
lfingers 7.12502
lthumb 3.97724 16.0909
rfemur -42.9855 -17.955 7.51703
rtibia 54.803
rfoot -18.4257 -5.69082
rtoes -5.00775
lfemur -40.5355 15.0266 -18.5078
ltibia 53.5177
lfoot -14.3739 3.56601
ltoes -14.6446
131
root 13.2008 15.5599 -1.60788 -96.6089 -81.0418 106.346
lowerback 37.2997 1.98999 3.76344
upperback 10.0905 2.52669 -0.600751
thorax -7.01218 0.740679 -3.48472
lowerneck -29.1075 -0.737964 -5.58775
upperneck 30.0912 1.78458 -1.1782
head 15.4501 -0.196936 0.794134
rclavicle 1.74931e-014 6.20208e-014
rhumerus 3.00841 10.8563 -79.5939
rradius 55.7625
rwrist -29.0334
rhand -16.6032 -34.0528
rfingers 7.12502
rthumb 9.61819 -63.8132
lclavicle 1.74931e-014 6.20208e-014
lhumerus -23.3486 -17.3395 87.2806
lradius 41.6043
lwrist 19.4404
lhand -22.4882 -13.5062
lfingers 7.12502
lthumb 3.93738 16.4372
rfemur -43.9259 -18.3734 7.18564
rtibia 55.9818
rfoot -18.6379 -5.46006
rtoes -5.32114
lfemur -41.6201 15.0109 -19.021
ltibia 54.9329
lfoot -15.2883 3.49305
ltoes -14.4994
132
root 13.2221 15.4804 -1.52977 -95.586 -80.9623 105.616
lowerback 37.979 2.02616 3.71979
upperback 10.1283 2.54045 -0.684375
thorax -7.19762 0.735066 -3.56508
lowerneck -29.2177 -0.954044 -5.87838
upperneck 29.8713 1.53553 -0.934755
head 15.3728 -0.286844 0.893815
rclavicle 6.36111e-015 -9.54166e-015
rhumerus 3.86007 10.5728 -79.3324
rradius 56.0703
rwrist -29.2121
rhand -16.6601 -33.9572
rfingers 7.12502
rthumb 9.56328 -63.7202
lclavicle 6.36111e-015 -9.54166e-015
lhumerus -23.2176 -18.2088 87.4164
lradius 42.1342
lwrist 19.7668
lhand -22.425 -13.1658
lfingers 7.12502
lthumb 3.99842 16.7765
rfemur -45.0254 -18.8286 6.88569
rtibia 57.1844
rfoot -18.8417 -5.24639
rtoes -5.74654
lfemur -42.9752 14.9905 -19.6151
ltibia 56.4023
lfoot -16.0001 3.57409
ltoes -14.4982
133
root 13.2412 15.3967 -1.45015 -95.0879 -81.0497 105.415
lowerback 38.6016 2.06285 3.72918
upperback 10.1867 2.57639 -0.69239
thorax -7.3354 0.738645 -3.59952
lowerneck -29.3326 -1.13438 -6.16339
upperneck 29.6001 1.34 -0.69755
head 15.2733 -0.352889 1.00061
rclavicle -9.54166e-015 9.54166e-015
rhumerus 4.86932 10.4716 -79.0041
rradius 56.1797
rwrist -29.5025
rhand -16.8117 -34.019
rfingers 7.12502
rthumb 9.41701 -63.7886
lclavicle -9.54166e-015 9.54166e-015
lhumerus -22.8029 -18.9341 87.4651
lradius 42.4309
lwrist 20.3284
lhand -22.3128 -13.2529
lfingers 7.12502
lthumb 4.10668 16.6873
rfemur -46.141 -19.1757 6.77916
rtibia 58.412
rfoot -19.0644 -5.08696
rtoes -6.75604
lfemur -44.343 15.0231 -20.0079
ltibia 57.9409
lfoot -16.6292 3.65864
ltoes -14.6414
